<?xml version="1.0" encoding="utf-8"?>
<svg width="10.286" height="10.286" viewBox="0 0 10.286 10.286" fill="none" xmlns="http://www.w3.org/2000/svg">
  <path id="icon_fb" d="M5.49108 10.2857L5.49108 6.30135L4.15179 6.30135L4.15179 4.74777L5.49108 4.74777L5.49108 3.60268C5.49108 2.27679 6.30804 1.55357 7.49331 1.55357C8.05581 1.55357 8.54465 1.59375 8.68528 1.61384L8.68528 3L7.86831 3.0067C7.21876 3.0067 7.09822 3.30804 7.09822 3.7567L7.09822 4.74777L8.63171 4.74777L8.43081 6.30135L7.09822 6.30135L7.09822 10.2857L8.35715 10.2857C9.42189 10.2857 10.2857 9.42189 10.2857 8.35715L10.2857 1.92857C10.2857 0.86384 9.42189 0 8.35715 0L1.92857 0C0.86384 0 0 0.86384 0 1.92857L0 8.35715C0 9.42189 0.86384 10.2857 1.92857 10.2857L5.49108 10.2857Z" fill="#FFFFFF" transform="translate(0 -0)" />
</svg>