<?xml version="1.0" encoding="utf-8"?>
<svg width="10.554" height="8.572" viewBox="0 0 10.554 8.572" fill="none" xmlns="http://www.w3.org/2000/svg">
  <path id="icon_twitter" d="M3.32143 8.57144C7.29912 8.57144 9.47546 5.27679 9.47546 2.41741C9.47546 2.32366 9.47546 2.22991 9.46876 2.13616C9.89064 1.82813 10.2589 1.44643 10.5536 1.01786C10.1652 1.18527 9.74332 1.30581 9.30805 1.35268C9.75671 1.08482 10.0982 0.662947 10.2589 0.160715C9.84376 0.408483 9.37501 0.589286 8.88617 0.683036C8.49108 0.261161 7.92858 0 7.30581 0C6.10715 0 5.14286 0.970983 5.14286 2.16295C5.14286 2.33036 5.16295 2.49777 5.19643 2.65849C3.40179 2.56473 1.80134 1.70759 0.736608 0.39509C0.549108 0.716519 0.441965 1.08482 0.441965 1.48661C0.441965 2.23661 0.823662 2.89956 1.40625 3.28795C1.05134 3.27456 0.716519 3.17411 0.428572 3.0134L0.428572 3.04018L0.428572 3.04018C0.428572 4.09152 1.17188 4.96206 2.16295 5.16295C1.98215 5.20983 1.78795 5.23661 1.59375 5.23661C1.45313 5.23661 1.3192 5.22322 1.18527 5.20313C1.45982 6.06028 2.2567 6.68304 3.20759 6.70313C2.46429 7.28572 1.53348 7.62724 0.522322 7.62724C0.341518 7.62724 0.174107 7.62054 0 7.60045C0.95759 8.21653 2.09598 8.57144 3.32143 8.57144Z" fill="#FFFFFF" transform="translate(0 -0)" />
</svg>