<?xml version="1.0" encoding="utf-8"?>
<svg width="10.287" height="10.287" viewBox="0 0 10.287 10.287" fill="none" xmlns="http://www.w3.org/2000/svg">
  <path id="icon_ig" d="M7.26605 10.2527C8.08971 10.2125 8.81963 10.025 9.42231 9.42231C10.025 8.81963 10.2125 8.08971 10.2527 7.26605C10.2794 6.79284 10.2854 6.3226 10.2864 5.85137L10.2861 5.14328C10.2861 4.43346 10.2928 3.73033 10.2527 3.02051C10.2125 2.19685 10.025 1.46694 9.42231 0.864259C8.81963 0.26158 8.08971 0.0740793 7.26605 0.0339007C6.79284 0.00711496 6.3226 0.00116258 5.85137 0.000170511L5.14328 0.000418527C4.43346 0.000418527 3.73034 -0.00627791 3.02051 0.0339007C2.19685 0.0740793 1.46694 0.26158 0.864258 0.864259C0.261581 1.46694 0.0740776 2.19685 0.0339012 3.02051C0.00711441 3.49373 0.00116348 3.96396 0.000171661 4.4352L0.000419617 5.14328C0.000419617 5.8531 -0.00627899 6.55623 0.0339012 7.26605C0.0740776 8.08971 0.261581 8.81963 0.864258 9.42231C1.46694 10.025 2.19685 10.2125 3.02051 10.2527C3.49372 10.2794 3.96397 10.2854 4.4352 10.2864L5.14328 10.2861C5.8531 10.2861 6.55623 10.2928 7.26605 10.2527ZM5.33076 9.36293L5.14328 9.36204C4.39328 9.36204 2.78614 9.42231 2.10979 9.15445C1.87542 9.0607 1.70131 8.94686 1.52051 8.76605C1.33971 8.58525 1.22587 8.41114 1.13211 8.17677C0.864258 7.50043 0.924526 5.89328 0.924526 5.14328C0.924526 4.39328 0.864258 2.78614 1.13211 2.1098C1.22587 1.87542 1.33971 1.70131 1.52051 1.52051C1.70131 1.33971 1.87542 1.22587 2.10979 1.13212C2.78614 0.864259 4.39328 0.924527 5.14328 0.924527C5.89328 0.924527 7.50043 0.864259 8.17677 1.13212C8.41114 1.22587 8.58525 1.33971 8.76606 1.52051C8.94686 1.70131 9.0607 1.87542 9.15445 2.1098C9.42231 2.78614 9.36204 4.39328 9.36204 5.14328C9.36204 5.89328 9.42231 7.50043 9.15445 8.17677C9.0607 8.41114 8.94686 8.58525 8.76606 8.76605C8.58525 8.94686 8.41114 9.0607 8.17677 9.15445C7.55245 9.4017 6.13503 9.36937 5.33076 9.36293ZM7.88882 3.01381C8.23034 3.01381 8.50489 2.73926 8.50489 2.39774C8.50489 2.05622 8.23034 1.78167 7.88882 1.78167C7.5473 1.78167 7.27275 2.05622 7.27275 2.39774C7.27275 2.73926 7.5473 3.01381 7.88882 3.01381ZM5.14328 7.78168C6.60311 7.78168 7.78168 6.60311 7.78168 5.14328C7.78168 3.68346 6.60311 2.50489 5.14328 2.50489C3.68346 2.50489 2.50489 3.68346 2.50489 5.14328C2.50489 6.60311 3.68346 7.78168 5.14328 7.78168ZM5.14328 6.85757C4.19909 6.85757 3.42899 6.08748 3.42899 5.14328C3.42899 4.19908 4.19909 3.42899 5.14328 3.42899C6.08748 3.42899 6.85757 4.19908 6.85757 5.14328C6.85757 6.08748 6.08748 6.85757 5.14328 6.85757Z" fill="#FFFFFF" transform="translate(0 0)" />
</svg>