<?xml version="1.0" encoding="utf-8"?>
<svg width="108.668" height="51.5" viewBox="0 0 108.668 51.5" fill="none" xmlns="http://www.w3.org/2000/svg">
  <g>
    <path d="M8.056 11.608L8.056 9.728L3.08 9.728L3.08 6.68L6.952 6.68L6.952 4.864L3.08 4.864L3.08 1.88L8.056 1.88L8.056 0L0.664 0L0.664 11.608L8.056 11.608ZM10.418 11.608C10.6207 11.608 10.7887 11.5533 10.922 11.444C11.0553 11.3347 11.1487 11.2133 11.202 11.08L11.202 11.08L11.986 8.864L16.61 8.864L17.394 11.08C17.458 11.2347 17.5553 11.3613 17.686 11.46C17.8167 11.5587 17.986 11.608 18.194 11.608L18.194 11.608L20.058 11.608L15.53 0L13.074 0L8.538 11.608L10.418 11.608ZM16.026 7.2L12.57 7.2L13.826 3.664C13.9007 3.47733 13.978 3.25733 14.058 3.004C14.138 2.75067 14.2153 2.47733 14.29 2.184C14.37 2.472 14.4513 2.74133 14.534 2.992C14.6167 3.24267 14.6953 3.46133 14.77 3.648L14.77 3.648L16.026 7.2ZM23.58 11.608L23.58 7.184L24.396 7.184C24.6093 7.184 24.7707 7.216 24.88 7.28C24.9893 7.344 25.0893 7.44533 25.18 7.584L25.18 7.584L27.388 11.144C27.5693 11.4533 27.8627 11.608 28.268 11.608L28.268 11.608L30.436 11.608L27.732 7.432C27.6253 7.26667 27.504 7.124 27.368 7.004C27.232 6.884 27.0867 6.78133 26.932 6.696C27.3267 6.56267 27.676 6.38667 27.98 6.168C28.284 5.94933 28.54 5.69867 28.748 5.416C28.956 5.13333 29.1147 4.82 29.224 4.476C29.3333 4.132 29.388 3.768 29.388 3.384C29.388 2.888 29.3027 2.43333 29.132 2.02C28.9613 1.60667 28.692 1.25067 28.324 0.952C27.956 0.653333 27.484 0.42 26.908 0.252C26.332 0.084 25.6387 0 24.828 0L24.828 0L21.18 0L21.18 11.608L23.58 11.608ZM24.812 5.496L23.58 5.496L23.58 1.824L24.828 1.824C25.5747 1.824 26.1307 1.976 26.496 2.28C26.8613 2.584 27.044 3.01067 27.044 3.56C27.044 3.83733 27.0013 4.09333 26.916 4.328C26.8307 4.56267 26.6973 4.76667 26.516 4.94C26.3347 5.11333 26.1027 5.24933 25.82 5.348C25.5373 5.44667 25.2013 5.496 24.812 5.496L24.812 5.496ZM36.174 11.608L36.174 1.936L39.566 1.936L39.566 0L30.374 0L30.374 1.936L33.766 1.936L33.766 11.608L36.174 11.608ZM43.48 11.608L43.48 6.608L48.592 6.608L48.592 11.608L51.008 11.608L51.008 0L48.592 0L48.592 4.928L43.48 4.928L43.48 0L41.064 0L41.064 11.608L43.48 11.608ZM59.756 11.608L59.756 6.608L64.868 6.608L64.868 11.608L67.284 11.608L67.284 0L64.868 0L64.868 4.928L59.756 4.928L59.756 0L57.34 0L57.34 11.608L59.756 11.608ZM77.158 11.608L77.158 9.728L72.182 9.728L72.182 6.68L76.054 6.68L76.054 4.864L72.182 4.864L72.182 1.88L77.158 1.88L77.158 0L69.766 0L69.766 11.608L77.158 11.608ZM79.52 11.608C79.7227 11.608 79.8907 11.5533 80.024 11.444C80.1573 11.3347 80.2507 11.2133 80.304 11.08L80.304 11.08L81.088 8.864L85.712 8.864L86.496 11.08C86.56 11.2347 86.6573 11.3613 86.788 11.46C86.9187 11.5587 87.088 11.608 87.296 11.608L87.296 11.608L89.16 11.608L84.632 0L82.176 0L77.64 11.608L79.52 11.608ZM85.128 7.2L81.672 7.2L82.928 3.664C83.0027 3.47733 83.08 3.25733 83.16 3.004C83.24 2.75067 83.3173 2.47733 83.392 2.184C83.472 2.472 83.5533 2.74133 83.636 2.992C83.7187 3.24267 83.7973 3.46133 83.872 3.648L83.872 3.648L85.128 7.2ZM92.682 11.608L92.682 7.184L93.498 7.184C93.7113 7.184 93.8727 7.216 93.982 7.28C94.0913 7.344 94.1913 7.44533 94.282 7.584L94.282 7.584L96.49 11.144C96.6713 11.4533 96.9647 11.608 97.37 11.608L97.37 11.608L99.538 11.608L96.834 7.432C96.7273 7.26667 96.606 7.124 96.47 7.004C96.334 6.884 96.1887 6.78133 96.034 6.696C96.4287 6.56267 96.778 6.38667 97.082 6.168C97.386 5.94933 97.642 5.69867 97.85 5.416C98.058 5.13333 98.2167 4.82 98.326 4.476C98.4353 4.132 98.49 3.768 98.49 3.384C98.49 2.888 98.4047 2.43333 98.234 2.02C98.0633 1.60667 97.794 1.25067 97.426 0.952C97.058 0.653333 96.586 0.42 96.01 0.252C95.434 0.084 94.7407 0 93.93 0L93.93 0L90.282 0L90.282 11.608L92.682 11.608ZM93.914 5.496L92.682 5.496L92.682 1.824L93.93 1.824C94.6767 1.824 95.2327 1.976 95.598 2.28C95.9633 2.584 96.146 3.01067 96.146 3.56C96.146 3.83733 96.1033 4.09333 96.018 4.328C95.9327 4.56267 95.7993 4.76667 95.618 4.94C95.4367 5.11333 95.2047 5.24933 94.922 5.348C94.6393 5.44667 94.3033 5.496 93.914 5.496L93.914 5.496ZM105.276 11.608L105.276 1.936L108.668 1.936L108.668 0L99.476 0L99.476 1.936L102.868 1.936L102.868 11.608L105.276 11.608ZM3.08 30.608L3.08 25.976L7.256 25.976L7.256 24.088L3.08 24.088L3.08 20.88L8.056 20.88L8.056 19L0.664 19L0.664 30.608L3.08 30.608ZM14.938 30.736C15.8287 30.736 16.6393 30.5853 17.37 30.284C18.1007 29.9827 18.726 29.568 19.246 29.04C19.766 28.512 20.1687 27.8853 20.454 27.16C20.7393 26.4347 20.882 25.648 20.882 24.8C20.882 23.9573 20.7393 23.1747 20.454 22.452C20.1687 21.7293 19.766 21.1027 19.246 20.572C18.726 20.0413 18.1007 19.6253 17.37 19.324C16.6393 19.0227 15.8287 18.872 14.938 18.872C14.0473 18.872 13.2367 19.0227 12.506 19.324C11.7753 19.6253 11.1487 20.04 10.626 20.568C10.1033 21.096 9.69933 21.7213 9.414 22.444C9.12867 23.1667 8.986 23.952 8.986 24.8C8.986 25.648 9.12867 26.4347 9.414 27.16C9.69933 27.8853 10.1033 28.512 10.626 29.04C11.1487 29.568 11.7753 29.9827 12.506 30.284C13.2367 30.5853 14.0473 30.736 14.938 30.736ZM14.938 28.712C14.394 28.712 13.906 28.6227 13.474 28.444C13.042 28.2653 12.6753 28.008 12.374 27.672C12.0727 27.336 11.842 26.9267 11.682 26.444C11.522 25.9613 11.442 25.4133 11.442 24.8C11.442 24.192 11.522 23.6467 11.682 23.164C11.842 22.6813 12.0727 22.2707 12.374 21.932C12.6753 21.5933 13.042 21.3347 13.474 21.156C13.906 20.9773 14.394 20.888 14.938 20.888C15.482 20.888 15.9687 20.9773 16.398 21.156C16.8273 21.3347 17.1927 21.5933 17.494 21.932C17.7953 22.2707 18.026 22.6813 18.186 23.164C18.346 23.6467 18.426 24.192 18.426 24.8C18.426 25.4133 18.346 25.9613 18.186 26.444C18.026 26.9267 17.7953 27.336 17.494 27.672C17.1927 28.008 16.8273 28.2653 16.398 28.444C15.9687 28.6227 15.482 28.712 14.938 28.712ZM27.444 30.736C28.2013 30.736 28.8813 30.616 29.484 30.376C30.0867 30.136 30.5987 29.8027 31.02 29.376C31.4413 28.9493 31.7653 28.4413 31.992 27.852C32.2187 27.2627 32.332 26.616 32.332 25.912L32.332 25.912L32.332 19L29.932 19L29.932 25.912C29.932 26.3387 29.876 26.7227 29.764 27.064C29.652 27.4053 29.4893 27.696 29.276 27.936C29.0627 28.176 28.8013 28.3613 28.492 28.492C28.1827 28.6227 27.8333 28.688 27.444 28.688C27.0493 28.688 26.6973 28.6227 26.388 28.492C26.0787 28.3613 25.8173 28.176 25.604 27.936C25.3907 27.696 25.228 27.4053 25.116 27.064C25.004 26.7227 24.948 26.3387 24.948 25.912L24.948 25.912L24.948 19L22.548 19L22.548 25.912C22.548 26.616 22.6613 27.2627 22.888 27.852C23.1147 28.4413 23.4387 28.9493 23.86 29.376C24.2813 29.8027 24.7947 30.136 25.4 30.376C26.0053 30.616 26.6867 30.736 27.444 30.736ZM36.79 30.608L36.79 23.896C36.79 23.7413 36.786 23.5747 36.778 23.396C36.77 23.2173 36.758 23.0347 36.742 22.848L36.742 22.848L42.526 30.2C42.6487 30.3493 42.774 30.4547 42.902 30.516C43.03 30.5773 43.1873 30.608 43.374 30.608L43.374 30.608L44.614 30.608L44.614 19L42.494 19L42.494 25.64C42.494 25.8107 42.4993 25.992 42.51 26.184C42.5207 26.376 42.5367 26.5733 42.558 26.776L42.558 26.776L36.734 19.376C36.67 19.296 36.6113 19.232 36.558 19.184C36.5047 19.136 36.4487 19.0973 36.39 19.068C36.3313 19.0387 36.266 19.02 36.194 19.012C36.122 19.004 36.0353 19 35.934 19L35.934 19L34.67 19L34.67 30.608L36.79 30.608ZM51.56 30.608C52.4507 30.608 53.2613 30.464 53.992 30.176C54.7227 29.888 55.348 29.488 55.868 28.976C56.388 28.464 56.7907 27.852 57.076 27.14C57.3613 26.428 57.504 25.648 57.504 24.8C57.504 23.9573 57.3613 23.1813 57.076 22.472C56.7907 21.7627 56.388 21.1507 55.868 20.636C55.348 20.1213 54.7227 19.72 53.992 19.432C53.2613 19.144 52.4507 19 51.56 19L51.56 19L47.096 19L47.096 30.608L51.56 30.608ZM51.56 28.728L49.512 28.728L49.512 20.88L51.56 20.88C52.104 20.88 52.5907 20.9707 53.02 21.152C53.4493 21.3333 53.8133 21.592 54.112 21.928C54.4107 22.264 54.64 22.6747 54.8 23.16C54.96 23.6453 55.04 24.192 55.04 24.8C55.04 25.4133 54.96 25.9627 54.8 26.448C54.64 26.9333 54.4107 27.3453 54.112 27.684C53.8133 28.0227 53.4493 28.2813 53.02 28.46C52.5907 28.6387 52.104 28.728 51.56 28.728L51.56 28.728ZM59.466 30.608C59.6687 30.608 59.8367 30.5533 59.97 30.444C60.1033 30.3347 60.1967 30.2133 60.25 30.08L60.25 30.08L61.034 27.864L65.658 27.864L66.442 30.08C66.506 30.2347 66.6033 30.3613 66.734 30.46C66.8647 30.5587 67.034 30.608 67.242 30.608L67.242 30.608L69.106 30.608L64.578 19L62.122 19L57.586 30.608L59.466 30.608ZM65.074 26.2L61.618 26.2L62.874 22.664C62.9487 22.4773 63.026 22.2573 63.106 22.004C63.186 21.7507 63.2633 21.4773 63.338 21.184C63.418 21.472 63.4993 21.7413 63.582 21.992C63.6647 22.2427 63.7433 22.4613 63.818 22.648L63.818 22.648L65.074 26.2ZM73.916 30.608L73.916 20.936L77.308 20.936L77.308 19L68.116 19L68.116 20.936L71.508 20.936L71.508 30.608L73.916 30.608ZM81.222 30.608L81.222 19L78.806 19L78.806 30.608L81.222 30.608ZM88.976 30.736C89.8667 30.736 90.6773 30.5853 91.408 30.284C92.1387 29.9827 92.764 29.568 93.284 29.04C93.804 28.512 94.2067 27.8853 94.492 27.16C94.7773 26.4347 94.92 25.648 94.92 24.8C94.92 23.9573 94.7773 23.1747 94.492 22.452C94.2067 21.7293 93.804 21.1027 93.284 20.572C92.764 20.0413 92.1387 19.6253 91.408 19.324C90.6773 19.0227 89.8667 18.872 88.976 18.872C88.0853 18.872 87.2747 19.0227 86.544 19.324C85.8133 19.6253 85.1867 20.04 84.664 20.568C84.1413 21.096 83.7373 21.7213 83.452 22.444C83.1667 23.1667 83.024 23.952 83.024 24.8C83.024 25.648 83.1667 26.4347 83.452 27.16C83.7373 27.8853 84.1413 28.512 84.664 29.04C85.1867 29.568 85.8133 29.9827 86.544 30.284C87.2747 30.5853 88.0853 30.736 88.976 30.736ZM88.976 28.712C88.432 28.712 87.944 28.6227 87.512 28.444C87.08 28.2653 86.7133 28.008 86.412 27.672C86.1107 27.336 85.88 26.9267 85.72 26.444C85.56 25.9613 85.48 25.4133 85.48 24.8C85.48 24.192 85.56 23.6467 85.72 23.164C85.88 22.6813 86.1107 22.2707 86.412 21.932C86.7133 21.5933 87.08 21.3347 87.512 21.156C87.944 20.9773 88.432 20.888 88.976 20.888C89.52 20.888 90.0067 20.9773 90.436 21.156C90.8653 21.3347 91.2307 21.5933 91.532 21.932C91.8333 22.2707 92.064 22.6813 92.224 23.164C92.384 23.6467 92.464 24.192 92.464 24.8C92.464 25.4133 92.384 25.9613 92.224 26.444C92.064 26.9267 91.8333 27.336 91.532 27.672C91.2307 28.008 90.8653 28.2653 90.436 28.444C90.0067 28.6227 89.52 28.712 88.976 28.712ZM98.85 30.608L98.85 23.896C98.85 23.7413 98.846 23.5747 98.838 23.396C98.83 23.2173 98.818 23.0347 98.802 22.848L98.802 22.848L104.586 30.2C104.709 30.3493 104.834 30.4547 104.962 30.516C105.09 30.5773 105.247 30.608 105.434 30.608L105.434 30.608L106.674 30.608L106.674 19L104.554 19L104.554 25.64C104.554 25.8107 104.559 25.992 104.57 26.184C104.581 26.376 104.597 26.5733 104.618 26.776L104.618 26.776L98.794 19.376C98.73 19.296 98.6713 19.232 98.618 19.184C98.5647 19.136 98.5087 19.0973 98.45 19.068C98.3913 19.0387 98.326 19.02 98.254 19.012C98.182 19.004 98.0953 19 97.994 19L97.994 19L96.73 19L96.73 30.608L98.85 30.608ZM5.624 49.736C6.584 49.736 7.412 49.5813 8.108 49.272C8.804 48.9627 9.38667 48.5093 9.856 47.912L9.856 47.912L8.904 46.896C8.81333 46.8 8.70133 46.752 8.568 46.752C8.49333 46.752 8.424 46.768 8.36 46.8C8.296 46.832 8.23467 46.872 8.176 46.92C8.00533 47.0747 7.836 47.2027 7.668 47.304C7.5 47.4053 7.32133 47.488 7.132 47.552C6.94267 47.616 6.73733 47.6613 6.516 47.688C6.29467 47.7147 6.048 47.728 5.776 47.728C5.31733 47.728 4.88667 47.6413 4.484 47.468C4.08133 47.2947 3.72933 47.04 3.428 46.704C3.12667 46.368 2.88933 45.956 2.716 45.468C2.54267 44.98 2.456 44.424 2.456 43.8C2.456 43.1813 2.536 42.6293 2.696 42.144C2.856 41.6587 3.08133 41.2493 3.372 40.916C3.66267 40.5827 4.01067 40.328 4.416 40.152C4.82133 39.976 5.26667 39.888 5.752 39.888C6.18933 39.888 6.55067 39.9333 6.836 40.024C7.12133 40.1147 7.35867 40.216 7.548 40.328C7.73733 40.44 7.89733 40.5413 8.028 40.632C8.15867 40.7227 8.288 40.768 8.416 40.768C8.544 40.768 8.64533 40.7413 8.72 40.688C8.79467 40.6347 8.856 40.5733 8.904 40.504L8.904 40.504L9.712 39.4C9.488 39.176 9.236 38.9693 8.956 38.78C8.676 38.5907 8.37067 38.4293 8.04 38.296C7.70933 38.1627 7.35333 38.0587 6.972 37.984C6.59067 37.9093 6.18667 37.872 5.76 37.872C5.18933 37.872 4.652 37.9373 4.148 38.068C3.644 38.1987 3.17867 38.388 2.752 38.636C2.32533 38.884 1.94267 39.184 1.604 39.536C1.26533 39.888 0.976 40.2827 0.736 40.72C0.496 41.1573 0.313333 41.636 0.188 42.156C0.0626667 42.676 0 43.224 0 43.8C0 44.6587 0.130667 45.4507 0.392 46.176C0.653333 46.9013 1.02667 47.528 1.512 48.056C1.99733 48.584 2.58667 48.996 3.28 49.292C3.97333 49.588 4.75467 49.736 5.624 49.736ZM18.65 49.608L18.65 47.728L13.674 47.728L13.674 44.68L17.546 44.68L17.546 42.864L13.674 42.864L13.674 39.88L18.65 39.88L18.65 38L11.258 38L11.258 49.608L18.65 49.608ZM24.988 49.608C25.676 49.608 26.2853 49.5213 26.816 49.348C27.3467 49.1747 27.7933 48.9333 28.156 48.624C28.5187 48.3147 28.7947 47.9493 28.984 47.528C29.1733 47.1067 29.268 46.6507 29.268 46.16C29.268 44.8213 28.4947 43.9707 26.948 43.608C27.3 43.4853 27.604 43.336 27.86 43.16C28.116 42.984 28.3253 42.788 28.488 42.572C28.6507 42.356 28.7707 42.1253 28.848 41.88C28.9253 41.6347 28.964 41.3787 28.964 41.112C28.964 40.6373 28.884 40.208 28.724 39.824C28.564 39.44 28.3093 39.1133 27.96 38.844C27.6107 38.5747 27.16 38.3667 26.608 38.22C26.056 38.0733 25.3907 38 24.612 38L24.612 38L20.492 38L20.492 49.608L24.988 49.608ZM24.468 42.96L22.892 42.96L22.892 39.824L24.612 39.824C24.948 39.824 25.2387 39.852 25.484 39.908C25.7293 39.964 25.932 40.0533 26.092 40.176C26.252 40.2987 26.3707 40.4613 26.448 40.664C26.5253 40.8667 26.564 41.112 26.564 41.4C26.564 41.6827 26.5173 41.924 26.424 42.124C26.3307 42.324 26.196 42.4853 26.02 42.608C25.844 42.7307 25.6253 42.82 25.364 42.876C25.1027 42.932 24.804 42.96 24.468 42.96L24.468 42.96ZM24.948 47.768L22.892 47.768L22.892 44.592L24.932 44.592C25.2947 44.592 25.6 44.6267 25.848 44.696C26.096 44.7653 26.2973 44.8653 26.452 44.996C26.6067 45.1267 26.7187 45.2853 26.788 45.472C26.8573 45.6587 26.892 45.8693 26.892 46.104C26.892 46.3173 26.8627 46.524 26.804 46.724C26.7453 46.924 26.6413 47.1013 26.492 47.256C26.3427 47.4107 26.144 47.5347 25.896 47.628C25.648 47.7213 25.332 47.768 24.948 47.768L24.948 47.768ZM35.91 49.736C36.6673 49.736 37.3473 49.616 37.95 49.376C38.5527 49.136 39.0647 48.8027 39.486 48.376C39.9073 47.9493 40.2313 47.4413 40.458 46.852C40.6847 46.2627 40.798 45.616 40.798 44.912L40.798 44.912L40.798 38L38.398 38L38.398 44.912C38.398 45.3387 38.342 45.7227 38.23 46.064C38.118 46.4053 37.9553 46.696 37.742 46.936C37.5287 47.176 37.2673 47.3613 36.958 47.492C36.6487 47.6227 36.2993 47.688 35.91 47.688C35.5153 47.688 35.1633 47.6227 34.854 47.492C34.5447 47.3613 34.2833 47.176 34.07 46.936C33.8567 46.696 33.694 46.4053 33.582 46.064C33.47 45.7227 33.414 45.3387 33.414 44.912L33.414 44.912L33.414 38L31.014 38L31.014 44.912C31.014 45.616 31.1273 46.2627 31.354 46.852C31.5807 47.4413 31.9047 47.9493 32.326 48.376C32.7473 48.8027 33.2607 49.136 33.866 49.376C34.4713 49.616 35.1527 49.736 35.91 49.736Z" fill="#FFFFFF" />
    <g transform="translate(44 37.5)">
      <path d="M6.93849 0C10.7679 0 13.877 3.10904 13.877 6.93849C13.877 10.7679 10.7679 13.877 6.93849 13.877C3.10904 13.877 0 10.7679 0 6.93849C0 3.10904 3.10904 0 6.93849 0Z" fill="#107052" fill-rule="evenodd" transform="matrix(1 0 0 1 -0 -0)" />
      <path d="M5.98143 0C9.28268 0 11.9629 2.68023 11.9629 5.98148C11.9629 9.28272 9.28268 11.963 5.98143 11.963C2.68019 11.963 0 9.28272 0 5.98148C0 2.68023 2.68019 0 5.98143 0Z" fill="#FFFFFF" fill-rule="evenodd" transform="translate(0.957 0.957)" />
      <path d="M4.19347 0.719115C3.2347 -0.239705 1.67786 -0.239705 0.719081 0.719115C-0.239694 1.67789 -0.239694 3.23473 0.719081 4.19351C1.67786 5.15228 3.2347 5.15228 4.19347 4.19351C5.15225 3.23473 5.15225 1.67789 4.19347 0.719115Z" fill="#272727" fill-rule="evenodd" transform="translate(2.69 3.572)" />
      <path d="M6.95999 4.18226C7.90756 3.22259 7.90386 1.67414 6.94879 0.719115C5.99001 -0.239705 4.43317 -0.239705 3.47439 0.719115L0 4.19351L3.47439 7.6679L6.94879 4.19351L6.95999 4.18226Z" fill="#107253" fill-rule="evenodd" transform="translate(3.409 3.572)" />
    </g>
  </g>
</svg>