<?xml version="1.0" encoding="utf-8"?>
<svg width="25.333" height="20" viewBox="0 0 25.333 20" fill="none" xmlns="http://www.w3.org/2000/svg">
  <path id="Shape" d="M25.3333 1.42857C25.3333 2.21755 24.7031 2.85714 23.926 2.85714C23.926 2.85714 1.40747 2.85714 1.40747 2.85714C0.630127 2.85714 0 2.21755 0 1.42857C0 0.639595 0.630127 0 1.40747 0C1.40747 0 23.926 0 23.926 0C24.7031 0 25.3333 0.639595 25.3333 1.42857C25.3333 1.42857 25.3333 1.42857 25.3333 1.42857ZM25.3333 10C25.3333 10.789 24.7031 11.4286 23.926 11.4286C23.926 11.4286 1.40747 11.4286 1.40747 11.4286C0.630127 11.4286 0 10.789 0 10C0 9.21102 0.630127 8.57143 1.40747 8.57143C1.40747 8.57143 23.926 8.57143 23.926 8.57143C24.7031 8.57143 25.3333 9.21102 25.3333 10C25.3333 10 25.3333 10 25.3333 10ZM23.926 20C24.7031 20 25.3333 19.3604 25.3333 18.5714C25.3333 17.7825 24.7031 17.1429 23.926 17.1429C23.926 17.1429 1.40747 17.1429 1.40747 17.1429C0.630127 17.1429 0 17.7825 0 18.5714C0 19.3604 0.630127 20 1.40747 20C1.40747 20 23.926 20 23.926 20C23.926 20 23.926 20 23.926 20Z" fill="#FFFFFF" fill-rule="evenodd" />
</svg>